<svg xmlns="http://www.w3.org/2000/svg" version="1.1" xmlns:xlink="http://www.w3.org/1999/xlink" xmlns:svgjs="http://svgjs.dev/svgjs" width="1000" height="189" viewBox="0 0 1000 189"><g transform="matrix(1,0,0,1,-0.6060594332695928,-0.5136241433378643)"><svg viewBox="0 0 396 75" data-background-color="#ffffff" preserveAspectRatio="xMidYMid meet" height="189" width="1000" xmlns="http://www.w3.org/2000/svg" xmlns:xlink="http://www.w3.org/1999/xlink"><g id="tight-bounds" transform="matrix(1,0,0,1,0.24000046442520784,0.20381948864874744)"><svg viewBox="0 0 395.5199999999999 74.59236140685208" height="74.59236140685208" width="395.5199999999999"><g><svg viewBox="0 0 395.5199999999999 74.59236140685208" height="74.59236140685208" width="395.5199999999999"><g><svg viewBox="0 0 507.0932426030845 95.63431032367971" height="74.59236140685208" width="395.5199999999999"><g transform="matrix(1,0,0,1,111.57324260308454,11.287624862496955)"><svg viewBox="0 0 395.52 73.0590605986858" height="73.0590605986858" width="395.52"><g id="textblocktransform"><svg viewBox="0 0 395.52 73.0590605986858" height="73.0590605986858" width="395.52" id="textblock"><g><svg viewBox="0 0 395.52 73.0590605986858" height="73.0590605986858" width="395.52"><g transform="matrix(1,0,0,1,0,0)"><svg width="395.52" viewBox="-0.30000001192092896 -37.5 205.44000244140625 37.95000076293945" height="73.0590605986858" data-palette-color="#07BDCA"><path d="M18.7-33.6Q21.5-33.6 23.88-32.93 26.25-32.25 28.7-30.8L28.7-30.8 29.85-31.75Q31.05-32.7 31.83-33.05 32.6-33.4 33.6-33.4L33.6-33.4Q34.8-33.4 35.5-32.88 36.2-32.35 36.2-31.35L36.2-31.35Q36.2-30.95 36.05-30.5L36.05-30.5 33.95-23.6Q33.6-22.4 33.08-21.9 32.55-21.4 31.5-21.4L31.5-21.4Q30.4-21.4 29.58-22.08 28.75-22.75 27-24.85L27-24.85Q25.25-26.85 23.83-27.68 22.4-28.5 20.9-28.5L20.9-28.5Q19.8-28.5 19.05-27.78 18.3-27.05 18.3-26L18.3-26Q18.3-24.8 19.5-23.78 20.7-22.75 23.25-21.2L23.25-21.2Q25.85-19.65 27.55-18.4 29.25-17.15 30.45-15.3 31.65-13.45 31.65-11.05L31.65-11.05Q31.65-9.5 31.15-7.95L31.15-7.95Q29.95-3.95 26.5-1.88 23.05 0.2 18.45 0.2L18.45 0.2Q15 0.2 12.65-0.6 10.3-1.4 7.85-3.3L7.85-3.3 6.05-1.8Q4.8-0.75 4-0.38 3.2 0 2.2 0L2.2 0Q1.05 0 0.38-0.55-0.3-1.1-0.3-2.05L-0.3-2.05Q-0.3-2.55-0.1-3.1L-0.1-3.1 2.35-10.55Q2.75-11.85 3.45-12.4 4.15-12.95 5.25-12.95L5.25-12.95Q6.4-12.95 7.33-12.15 8.25-11.35 9.75-9.25L9.75-9.25Q11.35-6.95 12.73-6.05 14.1-5.15 16-5.15L16-5.15Q17.35-5.15 18.07-5.58 18.8-6 19.1-6.95L19.1-6.95Q19.2-7.2 19.2-7.7L19.2-7.7Q19.2-8.9 18.05-9.9 16.9-10.9 14.5-12.3L14.5-12.3Q11.95-13.85 10.35-15.08 8.75-16.3 7.58-18.15 6.4-20 6.4-22.5L6.4-22.5Q6.4-24.25 6.95-25.95L6.95-25.95Q8-29.4 11.25-31.5 14.5-33.6 18.7-33.6L18.7-33.6ZM52.6-26.7Q55.65-26.7 57.95-25.83 60.25-24.95 61.52-23.43 62.8-21.9 62.8-20.05L62.8-20.05Q62.8-18.05 61.42-16.75 60.05-15.45 57.7-15.45L57.7-15.45Q55.3-15.45 53.95-16.68 52.6-17.9 52.6-20L52.6-20Q52.6-21 52.9-22.1L52.9-22.1Q50.8-21.55 49.17-19.93 47.55-18.3 47-15.65L47-15.65Q46.7-14.15 46.7-12.95L46.7-12.95Q46.7-10.25 48.2-8.85 49.7-7.45 52.5-7.45L52.5-7.45Q54.1-7.45 55.25-7.78 56.4-8.1 57.6-8.65L57.6-8.65Q58.6-9.15 59.05-9.15L59.05-9.15Q59.35-9.15 59.45-9.03 59.55-8.9 59.55-8.5L59.55-8.5Q59.6-6.65 58.02-4.63 56.45-2.6 53.67-1.23 50.9 0.15 47.45 0.15L47.45 0.15Q43.85 0.15 41.07-1.18 38.3-2.5 36.77-4.98 35.25-7.45 35.25-10.75L35.25-10.75Q35.25-12.3 35.65-14.2L35.65-14.2Q37-20.4 41.62-23.55 46.25-26.7 52.6-26.7L52.6-26.7ZM86.1-26.45Q88.9-26.45 90.57-24.75 92.25-23.05 92.25-20.55L92.25-20.55Q92.25-19.6 92.05-18.8L92.05-18.8Q91.55-16.75 90.15-15.65 88.75-14.55 86.8-14.55L86.8-14.55Q84.9-14.55 83.92-15.45 82.95-16.35 82.2-17.85L82.2-17.85Q81.8-18.7 81.45-19.1 81.1-19.5 80.65-19.5L80.65-19.5Q80.15-19.5 79.77-19.1 79.4-18.7 79.1-17.7L79.1-17.7 75.25-5.2Q75.15-4.95 75.15-4.45L75.15-4.45Q75.15-3.8 75.52-3.38 75.9-2.95 76.55-2.55L76.55-2.55Q77.15-2.15 77.35-1.9 77.55-1.65 77.5-1.25L77.5-1.25Q77.4-0.6 76.77-0.3 76.15 0 74.65 0L74.65 0 61.85 0Q60.55 0 59.97-0.43 59.4-0.85 59.55-1.55L59.55-1.55Q59.75-2.15 60.6-2.6L60.6-2.6Q61.35-3 61.85-3.55 62.35-4.1 62.7-5.3L62.7-5.3 67.15-19.75Q67.25-20 67.25-20.45L67.25-20.45Q67.25-21 67.02-21.3 66.8-21.6 66.3-22.05L66.3-22.05Q65.8-22.45 65.6-22.75 65.4-23.05 65.55-23.55L65.55-23.55Q65.85-24.7 68.7-25.58 71.55-26.45 74.65-26.45L74.65-26.45Q76.7-26.45 78.05-25.53 79.4-24.6 79.8-22.9L79.8-22.9Q82.2-26.45 86.1-26.45L86.1-26.45ZM103.49-26.45Q106.39-26.45 107.74-25.35 109.09-24.25 109.09-22.35L109.09-22.35Q109.09-21.2 108.74-20.15L108.74-20.15 104.14-5.2Q103.99-4.6 103.99-4.15L103.99-4.15Q103.99-3.5 104.24-3.13 104.49-2.75 104.94-2.4L104.94-2.4Q105.29-2.05 105.44-1.83 105.59-1.6 105.49-1.25L105.49-1.25Q105.24-0.6 104.49-0.3 103.74 0 102.19 0L102.19 0 90.79 0Q89.49 0 88.89-0.43 88.29-0.85 88.49-1.55L88.49-1.55Q88.69-2.15 89.54-2.6L89.54-2.6Q90.29-3 90.79-3.55 91.29-4.1 91.64-5.3L91.64-5.3 95.99-19.75Q96.14-20.2 96.14-20.5L96.14-20.5Q96.14-21.05 95.89-21.38 95.64-21.7 95.14-22.05L95.14-22.05Q94.64-22.45 94.44-22.75 94.24-23.05 94.39-23.55L94.39-23.55Q94.69-24.7 97.54-25.58 100.39-26.45 103.49-26.45L103.49-26.45ZM106.84-37.5Q108.79-37.5 110.09-36.23 111.39-34.95 111.39-33.1L111.39-33.1Q111.39-31.8 110.72-30.55 110.04-29.3 108.82-28.53 107.59-27.75 106.09-27.75L106.09-27.75Q104.19-27.75 102.92-29.03 101.64-30.3 101.59-32.2L101.59-32.2Q101.59-33.45 102.24-34.68 102.89-35.9 104.09-36.7 105.29-37.5 106.84-37.5L106.84-37.5ZM134.29-26.65Q137.99-26.65 140.22-24 142.44-21.35 142.44-17L142.44-17Q142.44-14.75 141.89-12.6L141.89-12.6Q140.29-6.15 136.42-2.85 132.54 0.45 127.49 0.45L127.49 0.45Q124.64 0.45 122.57-0.53 120.49-1.5 119.24-3.3L119.24-3.3 117.44-1.75Q116.39-0.85 115.39-0.43 114.39 0 113.09 0L113.09 0 110.89 0Q109.64 0 108.97-0.53 108.29-1.05 108.29-2.05L108.29-2.05Q108.29-2.5 108.44-3.1L108.44-3.1 116.79-30.25Q116.94-30.7 116.94-31L116.94-31Q116.94-31.85 115.89-32.6L115.89-32.6Q115.39-33.05 115.19-33.33 114.99-33.6 115.14-34.05L115.14-34.05Q115.49-35.2 118.32-36.08 121.14-36.95 124.24-36.95L124.24-36.95Q127.14-36.95 128.52-35.83 129.89-34.7 129.89-32.8L129.89-32.8Q129.89-31.75 129.54-30.7L129.54-30.7 127.44-23.9Q130.34-26.65 134.29-26.65L134.29-26.65ZM128.64-12.9Q129.64-16.3 129.64-18.4L129.64-18.4Q129.64-20.7 128.29-20.7L128.29-20.7Q127.09-20.7 126.04-19.45L126.04-19.45 122.79-8.85 122.49-7.9 122.49-7.9Q122.24-7.15 122.24-6.35L122.24-6.35Q122.24-4.6 123.89-4.6L123.89-4.6Q125.09-4.6 126.19-6.35 127.29-8.1 128.64-12.9L128.64-12.9ZM159.59-26.7Q165.94-26.7 168.79-24.68 171.64-22.65 171.64-19.5L171.64-19.5Q171.64-18.55 171.44-17.75L171.44-17.75Q170.69-14.45 167.26-13.03 163.84-11.6 159.19-11.6L159.19-11.6Q156.84-11.6 154.79-11.9L154.79-11.9Q154.74-9.3 156.19-8.25 157.64-7.2 160.24-7.2L160.24-7.2Q161.44-7.2 162.54-7.48 163.64-7.75 165.34-8.3L165.34-8.3Q166.74-8.8 167.24-8.8L167.24-8.8Q167.79-8.8 167.79-8.15L167.79-8.15Q167.84-6.4 166.49-4.48 165.14-2.55 162.49-1.2 159.84 0.15 156.09 0.15L156.09 0.15Q150.54 0.15 146.99-2.65 143.44-5.45 143.44-10.8L143.44-10.8Q143.44-12.3 143.84-14.3L143.84-14.3Q145.09-20.45 149.31-23.58 153.54-26.7 159.59-26.7L159.59-26.7ZM155.14-14.9Q155.34-14.85 155.69-14.85L155.69-14.85Q157.79-14.85 158.89-16.8 159.99-18.75 159.94-21.15L159.94-21.15Q159.89-22.55 159.14-22.55L159.14-22.55Q158.59-22.55 157.84-21.68 157.09-20.8 156.36-19.05 155.64-17.3 155.14-14.9L155.14-14.9ZM204.64-16.75L201.59-6.9Q201.49-6.7 201.49-6.3L201.49-6.3Q201.49-5.95 201.66-5.75 201.84-5.55 202.14-5.55L202.14-5.55Q202.74-5.55 203.16-6.08 203.59-6.6 203.74-6.6L203.74-6.6Q203.99-6.6 204.14-6.28 204.29-5.95 204.29-5.5L204.29-5.5Q204.34-4.05 203.34-2.68 202.34-1.3 200.41-0.43 198.49 0.45 195.79 0.45L195.79 0.45Q192.49 0.45 190.54-1.07 188.59-2.6 188.54-5.15L188.54-5.15Q188.54-7 189.44-9.3L189.44-9.3 192.19-16.5Q192.44-17.15 192.44-17.55L192.44-17.55Q192.44-18.2 192.01-18.57 191.59-18.95 190.99-18.95L190.99-18.95Q189.89-18.95 188.89-17.93 187.89-16.9 187.44-15.4L187.44-15.4 184.34-5.2Q184.14-4.65 184.14-4.15L184.14-4.15Q184.14-3.55 184.39-3.18 184.64-2.8 185.09-2.4L185.09-2.4Q185.44-2.1 185.59-1.85 185.74-1.6 185.64-1.25L185.64-1.25Q185.44-0.6 184.69-0.3 183.94 0 182.34 0L182.34 0 170.94 0Q169.64 0 169.06-0.43 168.49-0.85 168.64-1.55L168.64-1.55Q168.84-2.15 169.69-2.6L169.69-2.6Q170.44-3 170.94-3.55 171.44-4.1 171.79-5.3L171.79-5.3 176.24-19.75Q176.34-20 176.34-20.45L176.34-20.45Q176.34-21 176.11-21.3 175.89-21.6 175.39-22.05L175.39-22.05Q174.89-22.45 174.69-22.75 174.49-23.05 174.64-23.55L174.64-23.55Q174.94-24.7 177.79-25.58 180.64-26.45 183.74-26.45L183.74-26.45Q186.24-26.45 187.69-25.08 189.14-23.7 188.99-21.25L188.99-21.25Q191.04-24.2 193.34-25.33 195.64-26.45 198.34-26.45L198.34-26.45Q201.39-26.45 203.26-24.6 205.14-22.75 205.14-19.8L205.14-19.8Q205.14-18.25 204.64-16.75L204.64-16.75Z" opacity="1" transform="matrix(1,0,0,1,0,0)" fill="#07BDCA" class="wordmark-text-0" data-fill-palette-color="primary" id="text-0"></path></svg></g></svg></g></svg></g></svg></g><g><svg viewBox="0 0 94.32575181318919 95.63431032367971" height="95.63431032367971" width="94.32575181318919"><g><svg xmlns="http://www.w3.org/2000/svg" xmlns:xlink="http://www.w3.org/1999/xlink" version="1.1" x="0" y="0" viewBox="11.09610366821289 9.999250411987305 78.90315246582031 79.99775695800781" enable-background="new 0 0 100 100" xml:space="preserve" height="95.63431032367971" width="94.32575181318919" class="icon-icon-0" data-fill-palette-color="accent" id="icon-0"><g fill="#07BDCA" data-fill-palette-color="accent"><path d="M41.123 68.425c-3.833-0.664-7.779-1.348-10.318-2.266-4.209-1.621-1.831-4.028 0-4.59 1.221-0.332 2.52-0.576 3.794-0.703 0.952-0.098 1.646-0.938 1.558-1.885-0.088-0.957-0.928-1.646-1.885-1.563-3.984 0.381-9.258 1.953-11.436 4.541-0.117 0.132-0.195 0.283-0.264 0.43-0.415 0.498-0.64 1.162-0.566 1.855 0.239 2.227 2.002 4.131 5.391 5.83 3.008 1.509 7.803 2.339 12.881 3.213 2.539 0.439 5.137 0.894 7.419 1.431 3.369 1.553-0.176 3.916-2.781 4.893-8.619 2.456-23.213 1.538-28.116-2.642-1.45-1.24-3.633-1.074-4.873 0.386-1.245 1.45-1.069 3.638 0.381 4.878 0.4 0.342 0.85 0.664 1.313 0.967 5.439 4.399 12.881 6.797 21.182 6.797 0.098 0 0.195 0 0.293 0 7.881-0.049 15.413-2.324 19.651-5.928 1.25-1.064 5.049-4.297 4.014-8.066C57.463 71.247 49.894 69.943 41.123 68.425z" fill="#07BDCA" data-fill-palette-color="accent"></path><path d="M88.557 14.942l-3.496-3.496c-1.934-1.929-5.068-1.929-6.992 0L53.596 35.915l10.488 10.488 24.473-24.469C90.48 20.004 90.48 16.874 88.557 14.942z" fill="#07BDCA" data-fill-palette-color="accent"></path><polygon points="46.604,42.904 43.989,56.013 57.092,53.396  " fill="#07BDCA" data-fill-palette-color="accent"></polygon></g></svg></g></svg></g></svg></g></svg></g><defs></defs></svg><rect width="395.5199999999999" height="74.59236140685208" fill="none" stroke="none" visibility="hidden"></rect></g></svg></g></svg>