<svg xmlns="http://www.w3.org/2000/svg" height="40" viewBox="0 -960 960 960" width="40"><path fill="#07BDCA" d="M724-310.666q-56-56.334-88-126Q604-506.333 604-594t32-157.333q32-69.667 88-126l54 54.666Q731.333-775 706-721q-25.334 54-25.334 127T706-466.666q25.333 54.333 72 102l-54 54ZM859.334-448q-28-28.333-44.667-66.167Q798-552 798-594t16.667-79.833q16.667-37.833 44.667-66.167L914-685.333q-18 19-28.333 41.166Q875.333-622 875.333-594t10.334 50.167Q896-521.666 914-502.666L859.334-448ZM360-440.667q-66 0-109.667-43.666Q206.667-528 206.667-594t43.666-109.666Q294-747.333 360-747.333t109.667 43.667Q513.333-660 513.333-594t-43.666 109.667Q426-440.667 360-440.667ZM40-120v-100q0-36.333 18.333-63.666Q76.667-311 106.667-326q51-26 118.667-43.333Q293-386.666 360-386.666t134.333 17.333Q561.667-352 612.667-326q30 15 48.666 42.334Q680-256.333 680-220v100H40Zm66.666-66.666h506.668V-220q0-14.333-7.5-26.333-7.5-12-21.167-19.667-44-24-103.501-39-59.5-15-121.166-15t-121.5 15.667Q178.667-288.667 134.667-266q-12.334 6.333-20.167 19-7.834 12.667-7.834 27v33.334ZM360-507.333q37 0 61.833-24.833Q446.667-557 446.667-594t-24.834-61.833Q397-680.667 360-680.667t-61.833 24.834Q273.333-631 273.333-594t24.834 61.834Q323-507.333 360-507.333ZM360-594Zm0 407.334Z"/></svg>