<svg xmlns="http://www.w3.org/2000/svg" height="40" viewBox="0 -960 960 960" width="40"><path fill="#07BDCA" d="m475.333-80 181.334-480h82.666L924-80h-86l-41.333-124.667H604L558-80h-82.667Zm151.334-194.667h142.666l-70-195.333h-2.666l-70 195.333ZM160-200l-55.333-55.333L308-458.667q-38-43.333-67.167-88Q211.667-591.333 190-640h86q17.333 34 37.833 63.333 20.5 29.334 47.5 60.667 44.667-47.333 74.334-97.833Q465.333-664.333 486-720H40v-80h280v-80h80v80h280v80H566q-21.667 69.667-58 136.333Q471.667-517 418.667-457.333L516-358.667l-30 81.334L360-400 160-200Z"/></svg>